<?xml version="1.0" encoding="UTF-8"?>
<svg id="Layer_1" xmlns="http://www.w3.org/2000/svg" version="1.1" viewBox="0 0 1080 1080">
  <!-- Generator: Adobe Illustrator 29.4.0, SVG Export Plug-In . SVG Version: 2.1.0 Build 152)  -->
  <defs>
    <style>
      .st0 {
        fill: #f99898;
      }
    </style>
  </defs>
  <g>
    <ellipse class="st0" cx="656.24" cy="393.19" rx="24.9" ry="15.5" transform="translate(-69.13 636.25) rotate(-49.45)"/>
    <path class="st0" d="M450.23,372.05c15.04,3.71,4.44,24.89,16.59,28.72,3.75,1.21,8.39,1.32,11.95,3.32,10.88,5.52,9.85,22.5-1.24,27.42-4.34,2.61-10.78,3.17-12.48,8.49-1.36,5.07.1,13.62.55,19.81,1.2,6.25.34,22.3,2.89,25.69,2.61,1.04,4.68-1.23,8.25-1.81,3.93-1.11,8.56-.18,11.12,3,4.85,5.44,3.81,15.25-.77,21.41-7.01,10.49-24.36,13.3-31.74,14.06-30.5,1.47-29.77-37.58-26.78-59.87.44-5.94,1.95-12.77.9-18.5-1.53-5.32-8.64-5.38-13.25-7.09-15.99-4.61-16.54-21.66-1.97-28.58,5.25-2.65,12.75-3.96,14.7-10.09,1.67-7.42-.61-16.55,6.03-21.83,3.87-3.34,9.75-5.19,14.73-4.27l.55.12Z"/>
    <path class="st0" d="M518.82,506.1c-29.73-3.29-24.72-88.28-1.94-95.66,6.03-2,11.2.47,14.6,6.39,10.38,15.98,11.23,86.38-12.26,89.26h-.41Z"/>
    <path class="st0" d="M611.11,487.39c-7.98,34.69-47.38,10.47-47.16-15.06.15-7.4,2.35-15.7,3.31-22.94.7-4.96,1.88-7.83-3.72-9.27-5.75-1.34-12.56-2.08-16.75-6.71-4.59-4.57-5.56-13.97-1.62-19.13,4.12-5.39,11.35-6.55,17.69-7.61,4.42-.57,7.04-3.01,7.48-7.29,1.57-10.08,1.58-22.94,10.27-27.87,6.31-3.96,14.68-.63,18.1,5.61,3.75,6.58,2.76,13.71,2.72,21.38-.61,7.97,6.19,7.22,11.92,8.01,12.98,1.84,17.05,18.62,8.14,27.04-4.39,5.3-13.4,3.97-17.7,7.72-10.25,16.86,11.36,30.15,7.46,45.44l-.14.68Z"/>
    <path class="st0" d="M650.27,522.73c-5.12,0-9.95-2.68-12.37-7.19-11.85-22.02-6.86-85.01,9.86-95.05,14.18-8.78,20.55,17.12,22.52,27.27,3.29,18.19,2.11,52.62-5.82,69.03-1.77,3.65-5.49,5.93-9.55,5.93h-4.64Z"/>
    <path class="st0" d="M525.41,368.82c33.71-9.62,15.94,44.46-12.1,35.46-9.99-3.96-18.23-13.97-17.69-25,.33-5.05,2.92-9.33,6.8-10.94,6.29-2.38,15.04,2.68,22.32.59l.68-.11Z"/>
  </g>
  <g>
    <path class="st0" d="M373.05,671.33c-11.85,8.11-22.29-3.11-24.85-14.53-4.84-16.5,1.05-33.31-1.39-50.06-.65-9.02-12.63-19.51-20.54-12.33-2.55,2.89-3.3,8.22-3.25,14.77-.54,16.52,7.26,41.63-2.16,56.13-7.48,8.98-22.77,11.4-28.93-.01-10.44-18.25-7.82-40.92-9.09-60.99-.29-15.51-2.84-35.36,10.61-46.18,3.15-2.23,7.13-3.56,10.98-3.37,8.04.28,10.29,7.28,16.97,8.01,2.78.34,5.55-.24,8.23-1.18,9.62-4.61,21.14-10.44,31.88-4.75,5.09,2.09,8.95,6.61,14.56,6.98,6,.34,13.16-5.87,20.46-7.88,8.23-2.57,17.69-2.02,25.49,1.62,21.76,10.55,23.31,43.7,22.13,67.36-.68,12.49.02,26.57-5.4,37.99-5.66,12.88-23.71,14.67-29.69,1.03-6.97-15.81-2.87-33.89-3.36-50.3-.2-5.43-.84-11.54-4.3-15.86-3.5-4.64-11.01-5.95-14.54-1.11-10.35,13.71,8.11,59.2-13.29,74.32l-.52.35Z"/>
    <path class="st0" d="M612.42,664.25c-12.51,8.12-23.86.64-28.15-15.21-7.15-22.87-5.28-60.9-3.05-78.95.73-6.47,3.01-13.18,8.47-17.37,9.47-7.71,22.85-.49,33.94.58,6.37-.13,12.86-3.45,19.48-3.85,6.89-.93,14.83.89,20.05,4.13,18.94,12.61,22.16,48.11,19.83,77.84-1.29,11.07-4.09,20.85-8.6,27.24-5.35,8.56-17.07,10.61-23.86,3.02-11.22-12.34-4.42-42.45-7.03-60.46-.75-10.62-9.27-18.18-18.15-12.24-16.9,18.27,10.7,59.27-12.42,74.95l-.5.33Z"/>
    <path class="st0" d="M776.84,683.58c-2.27-.27-2.05-.43-3.64-.95-5.71-1.84-7.46-11.07-14.35-8.63-70.87,44.82-92.27-103.75-12.19-108.44,3.92-.1,9.63-.1,11.88-2.73,3.02-3.07,2.05-9.89,2.61-15.06.39-5.88,1.13-11.67,3.47-17.06,10.18-20.95,31.41-14.43,33.91,9.98,2.24,33.36.27,72.23-3.6,105.99-2.37,13.21.34,37.15-17.46,36.95l-.63-.05ZM742.6,638.16c22.61,1.43,23.2-42.03.23-39.64-17.38,3.36-21.49,38.62-.87,39.62l.64.02Z"/>
    <path class="st0" d="M561.8,633.28c-1.04-5.79,2.63-15.66,2.99-22.75,3.55-28.59,1.2-65.8-23.97-56.6-3.26,1.08-6.93,2.31-10.29,2.09-4.15-.1-7.76-2.66-11.71-4.54-10.04-5.07-21.87-6.11-32.01-.89-52.59,24.55-33.86,136.03,30.38,110.6,10.86-5.5,13.38.25,22.57,4.32,9.69,3.07,30.38-4.52,28.12-17.89-.49-4.92-4.6-9.56-5.95-13.87l-.12-.47ZM519.48,624.57c-26.1,15.66-38.23-32.54-12.39-40.33,22.09-5.88,27.64,29.02,12.95,39.95l-.56.38Z"/>
    <path class="st0" d="M919.21,673.39c-3-3.13.59-11.14.79-16.47,3.78-26.69,3.15-67.79-22.78-58.95-5.18,1.86-10.76,4.51-15.82,1.32-19.63-15.15-42.24-7.22-56.07,11.15-23.28,28.75-17.58,78.33,16.33,96.08,8.63,4.13,18.4,4.71,28.72.27,3.24-1.25,6.66-3.08,10.07-3.35,5.98-.35,10.49,4.97,15.84,7.06,11.99,5.36,24.24-1.81,31.02-11.07,6.67-9.07,8.1-20.09-.88-23.11-2.22-.83-5.12-1.25-6.93-2.66l-.29-.26ZM883.05,655.49c-6.31,30.11-45.48,12.88-32.76-14.4,8.52-25.45,41.68-9.59,32.97,13.68l-.2.72Z"/>
    <path class="st0" d="M270.11,669.38c-1.47-50.89-29.68-151.37-73.36-120.6l-.3.24c-8.73,7.07-14.33,17.8-19.14,28.01-17.7,37.56-43.01,105.7-22.23,125.01,7.9,7.28,19.84,2.64,26-4.89,12.08-12.25,14.87-38.98,29.21-44.91,16.45-2.58,18.3,19.92,23.09,31.11,4.03,11.06,15.14,24.93,26.99,16.08,8.13-6.36,10.08-19.77,9.74-30.05ZM222.5,624.86c-12.33,1.84-36.58,0-37.5-9.29-.34-2.92,1.31-5.48,3.45-7.57,1.36-1.18.67-2.37.64-3.85-.13-4.41,3.21-8.3,7.57-8.84,1.64-.28,3.05.55,4.07-1.22,3.4-4.98,9.08-7.71,14.75-6.22,5.49,1.42,9.91,6.5,11.51,13.09.12.52.29,1.05.64,1.45l.05.05c.31.35.78.61,1.23.82,2.64,1.18,4.92,2.59,6.69,4.14,9.89,8.99.88,15.87-13.11,17.45Z"/>
  </g>
</svg>