<?xml version="1.0" encoding="UTF-8"?>
<svg id="Layer_1" xmlns="http://www.w3.org/2000/svg" version="1.1" viewBox="130 310 820 480">
  <!-- Generator: Adobe Illustrator 29.4.0, SVG Export Plug-In . SVG Version: 2.1.0 Build 152)  -->
  <defs>
    <style>
      .st0 {
        fill: #f99898;
      }
    </style>
  </defs>
  <g>
    <g>
      <ellipse class="st0" cx="656.24" cy="360.73" rx="24.9" ry="15.5" transform="translate(-44.47 624.89) rotate(-49.45)"/>
      <path class="st0" d="M450.23,339.59c15.04,3.71,4.44,24.89,16.59,28.72,3.75,1.21,8.39,1.32,11.95,3.32,10.88,5.52,9.85,22.5-1.24,27.42-4.34,2.61-10.78,3.17-12.48,8.49-1.36,5.07.1,13.62.55,19.81,1.2,6.25.34,22.3,2.89,25.69,2.61,1.04,4.68-1.23,8.25-1.81,3.93-1.11,8.56-.18,11.12,3,4.85,5.44,3.81,15.25-.77,21.41-7.01,10.49-24.36,13.3-31.74,14.06-30.5,1.47-29.77-37.58-26.78-59.87.44-5.94,1.95-12.77.9-18.5-1.53-5.32-8.64-5.38-13.25-7.09-15.99-4.61-16.54-21.66-1.97-28.58,5.25-2.65,12.75-3.96,14.7-10.09,1.67-7.42-.61-16.55,6.03-21.83,3.87-3.34,9.75-5.19,14.73-4.27l.55.12Z"/>
      <path class="st0" d="M518.82,473.64c-29.73-3.29-24.72-88.28-1.94-95.66,6.03-2,11.2.47,14.6,6.39,10.38,15.98,11.23,86.38-12.26,89.26h-.41Z"/>
      <path class="st0" d="M611.11,454.93c-7.98,34.69-47.38,10.47-47.16-15.06.15-7.4,2.35-15.7,3.31-22.94.7-4.96,1.88-7.83-3.72-9.27-5.75-1.34-12.56-2.08-16.75-6.71-4.59-4.57-5.56-13.97-1.62-19.13,4.12-5.39,11.35-6.55,17.69-7.61,4.42-.57,7.04-3.01,7.48-7.29,1.57-10.08,1.58-22.94,10.27-27.87,6.31-3.96,14.68-.63,18.1,5.61,3.75,6.58,2.76,13.71,2.72,21.38-.61,7.97,6.19,7.22,11.92,8.01,12.98,1.84,17.05,18.62,8.14,27.04-4.39,5.3-13.4,3.97-17.7,7.72-10.25,16.86,11.36,30.15,7.46,45.44l-.14.68Z"/>
      <path class="st0" d="M650.27,490.27c-5.12,0-9.95-2.68-12.37-7.19-11.85-22.02-6.86-85.01,9.86-95.05,14.18-8.78,20.55,17.12,22.52,27.27,3.29,18.19,2.11,52.62-5.82,69.03-1.77,3.65-5.49,5.93-9.55,5.93h-4.64Z"/>
      <path class="st0" d="M525.41,336.37c33.71-9.62,15.94,44.46-12.1,35.46-9.99-3.96-18.23-13.97-17.69-25,.33-5.05,2.92-9.33,6.8-10.94,6.29-2.38,15.04,2.68,22.32.59l.68-.11Z"/>
    </g>
    <g>
      <path class="st0" d="M373.05,638.87c-11.85,8.11-22.29-3.11-24.85-14.53-4.84-16.5,1.05-33.31-1.39-50.06-.65-9.02-12.63-19.51-20.54-12.33-2.55,2.89-3.3,8.22-3.25,14.77-.54,16.52,7.26,41.63-2.16,56.13-7.48,8.98-22.77,11.4-28.93-.01-10.44-18.25-7.82-40.92-9.09-60.99-.29-15.51-2.84-35.36,10.61-46.18,3.15-2.23,7.13-3.56,10.98-3.37,8.04.28,10.29,7.28,16.97,8.01,2.78.34,5.55-.24,8.23-1.18,9.62-4.61,21.14-10.44,31.88-4.75,5.09,2.09,8.95,6.61,14.56,6.98,6,.34,13.16-5.87,20.46-7.88,8.23-2.57,17.69-2.02,25.49,1.62,21.76,10.55,23.31,43.7,22.13,67.36-.68,12.49.02,26.57-5.4,37.99-5.66,12.88-23.71,14.67-29.69,1.03-6.97-15.81-2.87-33.89-3.36-50.3-.2-5.43-.84-11.54-4.3-15.86-3.5-4.64-11.01-5.95-14.54-1.11-10.35,13.71,8.11,59.2-13.29,74.32l-.52.35Z"/>
      <path class="st0" d="M612.42,631.79c-12.51,8.12-23.86.64-28.15-15.21-7.15-22.87-5.28-60.9-3.05-78.95.73-6.47,3.01-13.18,8.47-17.37,9.47-7.71,22.85-.49,33.94.58,6.37-.13,12.86-3.45,19.48-3.85,6.89-.93,14.83.89,20.05,4.13,18.94,12.61,22.16,48.11,19.83,77.84-1.29,11.07-4.09,20.85-8.6,27.24-5.35,8.56-17.07,10.61-23.86,3.02-11.22-12.34-4.42-42.45-7.03-60.46-.75-10.62-9.27-18.18-18.15-12.24-16.9,18.27,10.7,59.27-12.42,74.95l-.5.33Z"/>
      <path class="st0" d="M776.84,651.12c-2.27-.27-2.05-.43-3.64-.95-5.71-1.84-7.46-11.07-14.35-8.63-70.87,44.82-92.27-103.75-12.19-108.44,3.92-.1,9.63-.1,11.88-2.73,3.02-3.07,2.05-9.89,2.61-15.06.39-5.88,1.13-11.67,3.47-17.06,10.18-20.95,31.41-14.43,33.91,9.98,2.24,33.36.27,72.23-3.6,105.99-2.37,13.21.34,37.15-17.46,36.95l-.63-.05ZM742.6,605.7c22.61,1.43,23.2-42.03.23-39.64-17.38,3.36-21.49,38.62-.87,39.62l.64.02Z"/>
      <path class="st0" d="M561.8,600.82c-1.04-5.79,2.63-15.66,2.99-22.75,3.55-28.59,1.2-65.8-23.97-56.6-3.26,1.08-6.93,2.31-10.29,2.09-4.15-.1-7.76-2.66-11.71-4.54-10.04-5.07-21.87-6.11-32.01-.89-52.59,24.55-33.86,136.03,30.38,110.6,10.86-5.5,13.38.25,22.57,4.32,9.69,3.07,30.38-4.52,28.12-17.89-.49-4.92-4.6-9.56-5.95-13.87l-.12-.47ZM519.48,592.11c-26.1,15.66-38.23-32.54-12.39-40.33,22.09-5.88,27.64,29.02,12.95,39.95l-.56.38Z"/>
      <path class="st0" d="M919.21,640.93c-3-3.13.59-11.14.79-16.47,3.78-26.69,3.15-67.79-22.78-58.95-5.18,1.86-10.76,4.51-15.82,1.32-19.63-15.15-42.24-7.22-56.07,11.15-23.28,28.75-17.58,78.33,16.33,96.08,8.63,4.13,18.4,4.71,28.72.27,3.24-1.25,6.66-3.08,10.07-3.35,5.98-.35,10.49,4.97,15.84,7.06,11.99,5.36,24.24-1.81,31.02-11.07,6.67-9.07,8.1-20.09-.88-23.11-2.22-.83-5.12-1.25-6.93-2.66l-.29-.26ZM883.05,623.04c-6.31,30.11-45.48,12.88-32.76-14.4,8.52-25.45,41.68-9.59,32.97,13.68l-.2.72Z"/>
      <path class="st0" d="M270.11,636.93c-1.47-50.89-29.68-151.37-73.36-120.6l-.3.24c-8.73,7.07-14.33,17.8-19.14,28.01-17.7,37.56-43.01,105.7-22.23,125.01,7.9,7.28,19.84,2.64,26-4.89,12.08-12.25,14.87-38.98,29.21-44.91,16.45-2.58,18.3,19.92,23.09,31.11,4.03,11.06,15.14,24.93,26.99,16.08,8.13-6.36,10.08-19.77,9.74-30.05ZM222.5,592.4c-12.33,1.84-36.58,0-37.5-9.29-.34-2.92,1.31-5.48,3.45-7.57,1.36-1.18.67-2.37.64-3.85-.13-4.41,3.21-8.3,7.57-8.84,1.64-.28,3.05.55,4.07-1.22,3.4-4.98,9.08-7.71,14.75-6.22,5.49,1.42,9.91,6.5,11.51,13.09.12.52.29,1.05.64,1.45l.05.05c.31.35.78.61,1.23.82,2.64,1.18,4.92,2.59,6.69,4.14,9.89,8.99.88,15.87-13.11,17.45Z"/>
    </g>
  </g>
  <g>
    <path d="M322.8,713.37c1.28-.88,2.33-1.76,3.25-2.72,3.12-3.27,4.13-6.8,3-10.49-.64-1.98-1.95-3.69-3.99-5.2-5.28-4.1-11.36-5.1-18.57-3.08-1.07.28-1.93,1.12-2.24,2.2-.27.92-.06,1.86.55,2.51.83.87.79,1.78.65,3.19-.11,1.29-.05,2.58,0,3.82.04.91.08,1.81.06,2.74,0,1.22.07,2.43.14,3.64.04.76.09,1.5.11,2.24.06,1.88.06,3.76.07,5.64,0,4.14.02,8.42.64,12.64l.03.21c.06.41.07.58.02.67-.86,1.12-.9,2.43-.09,3.59l.03.04c.65.85,1.57,1.3,2.63,1.3.25,0,.5-.02.76-.07.26-.04.53-.1.79-.15.47-.09.95-.19,1.41-.22,3.66-.24,7.32-1.27,11.21-3.14,2.68-1.34,4.38-2.97,5.38-5.15,1.97-4.57.91-8.56-3.32-12.57-.75-.7-1.63-1.18-2.51-1.62ZM318.2,717.91c1.58.66,2.88,1.25,3.98,2.3,1.04,1.01,1.52,2.35,1.33,3.65-.18,1.24-.94,2.28-2.08,2.88-2.68,1.4-5.56,2.18-8.6,2.99-.53-3.62-.55-7.15-.58-10.88v-1.59c2.05-.18,4.05-.19,5.94.65ZM311.68,697.34c2.79-.24,5.28.24,7.8,1.53.86.43,1.48.83,1.98,1.27,1.08.94,1.63,1.84,1.67,2.74.04,1.02-.56,2.16-1.85,3.47h-.01c-2.36,2.53-5.45,3.46-9.31,3.96-.25-2.91-.25-5.78-.25-8.81,0-1.38,0-2.77-.03-4.17Z"/>
    <path d="M362.09,723.94c-.38-2.17-.88-9.71-.88-14.73,0-1.52,0-2.96-.34-4.53-.44-1.87-1.65-2.4-2.71-2.53-1.41,0-2.47.77-2.99,2.17-.36.97-.4,2.19-.39,3.35-1.5-.64-2.96-1.21-4.65-1.32-3.61-.21-6.94,1.03-9.62,3.57-3.21,3.04-5.05,7.53-5.05,12.32,0,5.78,3.7,9.66,9.22,9.66,4.94,0,8.59-3.98,10.81-8.57.14,1.13.33,2.11.54,3.1h0c.87,4.02,2.72,6.23,5.19,6.23,1.69,0,2.92-1.23,2.92-2.92,0-.65-.26-1.34-.81-2.06-.59-.64-.81-1.54-1.24-3.75ZM352.87,713.5c-1.93,6.05-5.5,12.25-8.57,12.25-1.54,0-2.42-1.16-2.42-3.18,0-4.12,2.83-10.12,7.25-10.12,1.31,0,2.69.4,3.73,1.05Z"/>
    <path d="M392.24,706.37c-3.84-1.75-7.71-1.37-11.47,1.14-.78.51-1.47,1.08-2.14,1.7-.06-2.95-.06-5.89-.06-8.78,0-.59,0-1.18.01-1.77.01-1.2.03-2.4-.01-3.59-.03-1.21.08-2.4.2-3.67.15-1.69.31-3.43.12-5.18-.18-1.75-1.25-2.93-2.74-3.02-1.63-.1-3.1,1.13-3.34,2.77-.2,1.18-.26,2.35-.33,3.52-.46,6.75-.44,13.62-.38,19.54l.02,1.72c.04,3.41.08,6.93.69,10.38.64,3.65,1.96,6.58,4.03,8.96,1.87,2.1,4.69,3.3,7.67,3.3.23,0,.45,0,.68-.02,3.3-.21,6.16-1.83,8.05-4.58,2.96-4.28,4.26-9.2,3.85-14.62-.23-3.74-1.91-6.44-4.84-7.81ZM391.07,715.91c0,.14-.01.28-.01.42l-.18,1.23c-.45,3.18-.88,6.18-3.36,8.5-.79.74-1.97,1.14-3.16,1.05-1.1-.07-2.07-.54-2.65-1.26l-.15-.22c-.17-.24-.35-.49-.5-.63-1.43-1.79-1.7-3.93-.81-6.54,1.06-3.12,2.53-4.96,4.75-5.97.84-.39,1.61-.72,2.5-.72.17,0,.33.01.51.04,1.96.25,2.59.95,3.05,3.38.03.24.02.48,0,.73Z"/>
    <path d="M427.13,720.52c-.29-4.46-.58-9.08-.53-11.95,0-1.83-1.18-3.11-2.86-3.11-1.57,0-3.24,1.09-3.24,4.13,0,5.54-5.12,15.01-6.94,15.01s-2.32-9.09-2.49-12.07c-.09-1.68-1.34-2.94-2.92-2.94-1.66,0-3.11,1.51-3.11,3.24,0,5.41.78,17.99,8.01,17.99,3.79,0,6.03-2.33,8.19-5.39.18,2.84.31,5.98.21,8.59-.33,7.54-3.94,15.56-9.99,15.56-1.52,0-2.83-.61-3.77-1.78-.55-.66-1.33-1.02-2.21-1.02-1.75,0-3.18,1.45-3.18,3.24,0,1.69,1.45,3.23,2.82,4.11,2.05,1.36,4.28,2.05,6.65,2.05,10.41,0,16.02-12.06,16.02-23.4,0-2-.18-5.37-.57-10.61l-.11-1.67Z"/>
    <path d="M447.08,715.91l-.71-.33c-2-.92-4.06-1.88-4.06-3.38,0-1,.91-1.72,2.17-1.72.82,0,1.43.3,2.08.62.65.32,1.33.65,2.18.65,1.55,0,2.86-1.37,2.86-2.98,0-.77-.3-1.54-.86-2.18-1.47-1.62-4.29-2.2-6.45-2.2-5.02,0-8.39,3.5-8.39,8.71,0,1.84.67,3.34,2.13,4.72,1.24,1.16,3.12,2.11,4.78,2.95,1.19.6,2.32,1.17,2.88,1.66.59.5.89.98.89,1.42,0,.82-1.3,2.17-2.68,2.17-.7,0-1.45-.32-2.15-.92-.73-.65-1.71-1.05-2.56-1.05-1.59,0-2.98,1.37-2.98,2.92,0,3.38,4.52,5.47,8.71,5.47,3.95,0,8.14-4.31,8.14-8.39,0-3.03-2.39-6.29-5.98-8.11Z"/>
    <path d="M466.41,723.25c-.15-1.76-.19-3.68-.22-5.22-.02-1.14-.04-2.12-.1-2.75-.03-.69.09-1.14.25-1.76.19-.73.42-1.64.45-3.16,0-1.83-.98-3.68-3.15-3.68h0c-.94-.04-1.78.29-2.46.93-.95.9-1.53,2.4-1.57,4.15,0,.31,0,.62-.01.92-.01.64-.03,1.27.02,2,.11.76.14,1.94.19,3.42.06,1.93.15,4.58.44,7.79h0c.4,4.19,2.29,6.78,4.91,6.78h0c.05,0,.11,0,.16,0,.77,0,1.48-.27,2-.76.56-.53.87-1.28.87-2.1,0-.65-.26-1.34-.78-2.03-.46-.54-.8-2.07-1-4.53Z"/>
    <path d="M462.05,701.43c.5.22,1.02.33,1.53.33,1.15,0,2.26-.54,3.02-1.54,1.08-1.35.97-3.75-.24-5.04-1.56-1.64-3.06-2.2-4.48-1.67-1.49.63-2.32,1.88-2.32,3.53-.07,1.87,1,3.76,2.49,4.39Z"/>
    <path d="M495.7,701.97c-.8-.64-1.85-.87-2.83-.6-1.81.55-4.21,1.12-5.74,1.43.03-.56.06-1.13.08-1.69.1-2.01.2-4.04.25-6.07.07-.85.13-1.7.13-2.58.08-1.95-1.15-3.37-3.1-3.47-1.6.09-2.89,1.5-3.06,3.37-.1,1.51-.17,3.05-.25,4.65-.1,2.17-.2,4.41-.39,6.79l-.53.08c-2.33.36-4.35.67-6.41.63-1.44-.1-2.78,1.05-2.97,2.55-.18,1.38.71,2.75,2.06,3.14,1.12.28,2.2.28,3.4.28,1.25-.09,2.63-.19,4.16-.45-.05,1.35-.12,2.68-.18,3.98-.4,8.55-.75,15.92,2.39,19.32,1.14,1.23,2.69,1.89,4.58,1.95.1,0,.19,0,.29,0,1.93,0,4.14-.87,5.58-2.2.99-.92,1.52-1.97,1.55-3.02.05-.81-.25-1.65-.81-2.25-.52-.55-1.2-.84-1.88-.85-.89-.1-1.79.28-2.42.99-.16.15-.31.3-.45.44-.62.62-.87.82-1.34.79-.13,0-.21-.04-.3-.13-1.15-1.22-.94-7.47-.59-17.82l.07-2.14c1.9-.28,3.61-.63,5.27-.97.66-.13,1.32-.27,2.09-.43,1.61-.51,2.53-1.69,2.53-3.22.04-.96-.39-1.88-1.18-2.51Z"/>
    <path d="M521.84,701.97c-.8-.64-1.85-.87-2.83-.6-1.81.55-4.21,1.12-5.74,1.43.03-.56.06-1.13.08-1.69.1-2.01.2-4.04.25-6.14.06-.83.12-1.66.12-2.51.08-1.95-1.15-3.37-3.1-3.47-1.61.09-2.89,1.5-3.06,3.37-.1,1.53-.18,3.09-.25,4.7-.1,2.15-.2,4.37-.39,6.73l-.53.08c-2.33.36-4.35.67-6.41.63-1.46-.09-2.78,1.06-2.97,2.55-.18,1.38.71,2.75,2.06,3.14,1.12.28,2.19.29,3.4.28,1.25-.09,2.63-.19,4.16-.45-.05,1.35-.12,2.68-.18,3.98-.4,8.55-.75,15.92,2.39,19.32,1.14,1.23,2.69,1.89,4.58,1.95.1,0,.19,0,.29,0,1.93,0,4.13-.86,5.57-2.2.99-.92,1.52-1.97,1.55-3.02.05-.81-.25-1.65-.81-2.25-.52-.55-1.2-.84-1.88-.85-.89-.09-1.8.28-2.42.99-.16.15-.31.3-.45.44-.62.62-.87.82-1.34.79-.13,0-.21-.04-.3-.13-1.15-1.22-.94-7.48-.59-17.84l.07-2.11c1.9-.28,3.61-.63,5.28-.97.66-.13,1.31-.27,2.08-.42,1.61-.51,2.53-1.7,2.53-3.22.04-.96-.39-1.88-1.18-2.51Z"/>
    <path d="M548.15,712.58c0-4.42-3.55-7.75-8.26-7.75-6.51,0-12.91,7.34-12.91,14.81s3.42,14.69,13.03,14.69c2.86,0,5.21-.9,7.02-2.71.64-.72.99-1.56.99-2.37,0-1.7-1.28-2.98-2.98-2.98-.83,0-1.61.31-2.35.96-.59.59-1.67.95-2.87.95-4.08,0-5.59-2.84-6.15-5.18.63.08,1.25.08,1.82.08,5.73,0,12.65-4.68,12.65-10.49ZM533.59,716.95c.97-3.02,3.36-5.96,6.29-5.96,1.64,0,1.97.66,1.97,1.72,0,2.09-3.56,4.39-6.81,4.39-.53,0-1.01-.05-1.46-.15Z"/>
    <path d="M574.01,707.26c-1.41-.91-2.87-1.17-4.38-.74-3.51,1.12-5.69,3.73-7.56,6.44-.13.19-.26.39-.39.58,0-1.18.06-2.31.37-3.41.16-.87.2-1.62.14-2.28-.17-1.77-1.67-3.22-3.32-3.22h0c-1.74-.08-3.13,1.07-3.45,2.86-.15.67-.28,1.37-.21,2.02.13,2.28.05,4.65-.02,6.93-.07,2.12-.14,4.32-.04,6.65.13,1.99.25,3.98.44,5.98.16,1.8,1.9,3.58,3.62,3.67,2.13,0,2.7-1.69,2.96-3.31.12-.57.19-1.13.25-1.7.08-.66.15-1.27.31-1.89.86-3.44,2.59-6.81,5.45-10.62,1.15-1.53,2.1-2.58,3.86-2.15,1.39.33,2.64-.49,3.25-2.12.51-1.28,0-2.75-1.3-3.68Z"/>
    <path d="M614.09,695.78c-3.59-1.31-10.2.41-12.81,4.28-1.22,1.82-2.56,4.34-2.18,7.67.57,4.13,2.89,7.18,7.06,9.3.74.41,1.52.77,2.29,1.13,1.17.55,2.28,1.06,3.32,1.76,1.64,1.06,2.07,2.02,1.65,3.7-.46,2.01-2.48,3.42-4.61,3.19-1.52-.1-2.65-.74-3.71-2.1-.96-1.14-2.4-1.47-3.74-.89-1.3.52-2.02,1.61-2.02,2.98-.09,1.11.52,1.89,1.01,2.52v.02c2.37,2.9,5.5,4.3,9.78,4.21.1,0,.23,0,.36,0,.39,0,.88-.03,1.38-.18,4.24-1.29,6.9-3.83,7.91-7.54.47-1.63.89-3.78.04-6.04-1.12-2.79-3.04-4.83-5.73-6.07-1.98-.93-4.03-1.89-6.12-3.1-.65-.38-1.27-.74-1.61-1.31-1.06-1.53-.99-3.83.16-5.25,1.36-1.75,3.9-2.62,5.65-1.95,1.6.64,2.65,1.52,3.3,2.77.86,1.63,2.7,2.26,4.31,1.45,1.53-.81,2.16-2.58,1.47-4.15-1.53-3.19-3.95-5.35-7.17-6.43Z"/>
    <path d="M648.58,712.58c0-4.42-3.55-7.75-8.26-7.75-6.51,0-12.91,7.34-12.91,14.81s3.42,14.69,13.03,14.69c2.86,0,5.21-.9,7.02-2.71.64-.72.99-1.56.99-2.37,0-1.7-1.28-2.98-2.99-2.98-.83,0-1.6.31-2.34.96-.59.59-1.67.95-2.87.95-4.08,0-5.59-2.84-6.14-5.18.63.08,1.25.08,1.82.08,5.73,0,12.65-4.68,12.65-10.49ZM634.02,716.95c.97-3.02,3.36-5.96,6.29-5.96,1.65,0,1.98.66,1.98,1.72,0,2.09-3.56,4.39-6.81,4.39-.53,0-1.01-.05-1.46-.15Z"/>
    <path d="M674.44,707.26c-1.41-.91-2.88-1.17-4.38-.74-3.51,1.12-5.69,3.73-7.55,6.43-.13.2-.26.39-.39.59,0-1.18.06-2.31.37-3.41.16-.85.2-1.62.14-2.28-.17-1.77-1.68-3.22-3.32-3.22h0c-1.74-.08-3.13,1.07-3.45,2.86-.15.67-.28,1.37-.21,2.02.13,2.28.05,4.65-.02,6.93-.07,2.12-.14,4.32-.05,6.48v.18c.14,1.99.26,3.98.45,5.97.16,1.8,1.9,3.58,3.62,3.67,2.13,0,2.7-1.69,2.97-3.31.12-.56.18-1.12.25-1.68.08-.66.15-1.28.31-1.91.86-3.44,2.59-6.81,5.45-10.62,1.15-1.53,2.1-2.58,3.86-2.15,1.39.33,2.64-.49,3.25-2.12.51-1.28,0-2.75-1.29-3.68Z"/>
    <path d="M698.15,707.13c-.96-.35-2.06-.14-2.91.54-.96.72-1.42,1.72-1.78,2.74-1.37,4.56-2.68,8.49-4.07,12.21-1.54-3.5-2.6-7.22-3.64-10.86-.09-.31-.17-.62-.25-.94-.32-1.29-.69-2.76-1.82-3.89-1.06-1.06-2.52-1.23-3.84-.44-1.2.77-1.65,2.07-1.18,3.4.55,1.51.98,3.1,1.4,4.63.3,1.1.6,2.2.94,3.29,1.43,4.35,3.11,8.53,5,12.44.62,1.32,1.76,2.04,3.18,2.04.08,0,.15,0,.23,0,1.79,0,3.19-.89,4.05-2.62.39-.86.72-1.73,1.05-2.59.16-.42.32-.84.48-1.25,2.06-4.91,3.58-10.02,4.89-14.43.26-.59.29-1.3.12-1.98-.21-1.09-.9-1.94-1.86-2.29Z"/>
    <path d="M712.63,723.25c-.15-1.77-.19-3.69-.22-5.24-.02-1.13-.04-2.11-.1-2.73-.03-.69.09-1.14.25-1.77.19-.73.42-1.64.45-3.16,0-1.83-.98-3.68-3.15-3.68h0c-.94-.03-1.78.29-2.46.93-.95.9-1.53,2.4-1.57,4.15,0,.31,0,.62-.01.92-.01.64-.03,1.27.02,1.99.1.76.14,1.93.19,3.4.06,1.94.15,4.59.44,7.81h0c.4,4.19,2.29,6.78,4.91,6.78h0c.05,0,.11,0,.16,0,.77,0,1.48-.27,2-.76.56-.53.87-1.28.87-2.1,0-.65-.26-1.34-.78-2.03-.46-.54-.8-2.07-1-4.53Z"/>
    <path d="M708.26,701.43c.5.22,1.02.33,1.53.33,1.15,0,2.26-.54,3.02-1.54,1.08-1.35.97-3.75-.24-5.04-1.56-1.64-3.06-2.2-4.48-1.67-1.49.63-2.32,1.88-2.32,3.53-.07,1.87,1,3.76,2.49,4.39Z"/>
    <path d="M742.3,724.88c-.91-.35-1.88-.09-2.53.64-1.58,1.71-3.98,2.07-5.71,2.07-3.98,0-6.56-3.12-6.56-7.95s2.34-8.49,5.33-8.65c1.98-.11,2.26.52,2.66,1.42.21.41.42.83.74,1.31.76.93,1.85,1.47,2.98,1.47,1.91,0,3.24-1.36,3.24-3.3,0-4.13-3.94-7.37-8.96-7.37-7.42,0-12.59,7.81-12.59,14.81,0,8.81,4.99,14.5,12.72,14.5,4.21,0,10.3-2.31,10.3-6.48,0-1.12-.63-2.08-1.62-2.45Z"/>
    <path d="M770.32,712.58c0-4.42-3.55-7.75-8.26-7.75-6.51,0-12.91,7.34-12.91,14.81s3.42,14.69,13.03,14.69c2.86,0,5.21-.9,7.02-2.71.64-.72.99-1.56.99-2.37,0-1.7-1.28-2.98-2.98-2.98-.83,0-1.61.31-2.35.96-.59.59-1.67.95-2.87.95-4.08,0-5.59-2.84-6.15-5.18.63.08,1.25.08,1.82.08,5.73,0,12.65-4.68,12.65-10.49ZM755.76,716.95c.97-3.02,3.36-5.96,6.29-5.96,1.64,0,1.97.66,1.97,1.72,0,2.09-3.56,4.39-6.81,4.39-.53,0-1.01-.05-1.46-.15Z"/>
    <path d="M786.79,715.91l-.71-.33c-2-.92-4.06-1.88-4.06-3.38,0-1,.91-1.72,2.17-1.72.82,0,1.43.3,2.08.62.65.32,1.33.65,2.18.65,1.55,0,2.86-1.37,2.86-2.98,0-.77-.3-1.54-.86-2.18-1.47-1.62-4.29-2.2-6.45-2.2-5.02,0-8.39,3.5-8.39,8.71,0,1.84.67,3.34,2.13,4.72,1.24,1.16,3.12,2.11,4.78,2.95,1.19.6,2.32,1.17,2.88,1.66.59.5.89.98.89,1.42,0,.82-1.3,2.17-2.68,2.17-.7,0-1.45-.32-2.15-.92-.73-.65-1.71-1.05-2.56-1.05-1.59,0-2.98,1.37-2.98,2.92,0,3.38,4.52,5.47,8.71,5.47,3.95,0,8.14-4.31,8.14-8.39,0-3.03-2.39-6.29-5.98-8.11Z"/>
  </g>
</svg>