<?xml version="1.0" encoding="UTF-8"?>
<svg id="Layer_1" xmlns="http://www.w3.org/2000/svg" version="1.1" viewBox="415 285 260 490">
  <!-- Generator: Adobe Illustrator 29.4.0, SVG Export Plug-In . SVG Version: 2.1.0 Build 152)  -->
  <defs>
    <style>
      .st0 {
        fill: #f99898;
      }
    </style>
  </defs>
  <ellipse class="st0" cx="633.39" cy="335.75" rx="20.53" ry="12.78" transform="translate(-33.49 598.79) rotate(-49.45)"/>
  <path class="st0" d="M463.54,318.33c12.4,3.06,3.66,20.52,13.68,23.68,3.1.99,6.92,1.09,9.85,2.74,8.97,4.55,8.12,18.55-1.02,22.61-3.58,2.15-8.89,2.61-10.29,7-1.12,4.18.08,11.23.45,16.33.99,5.15.28,18.38,2.38,21.18,2.15.86,3.86-1.02,6.8-1.49,3.24-.92,7.06-.15,9.17,2.48,4,4.48,3.14,12.57-.64,17.65-5.78,8.65-20.09,10.97-26.17,11.59-25.15,1.22-24.55-30.98-22.08-49.36.37-4.9,1.61-10.53.74-15.25-1.26-4.39-7.12-4.44-10.92-5.84-13.18-3.8-13.64-17.86-1.62-23.56,4.33-2.19,10.51-3.27,12.12-8.32,1.38-6.12-.5-13.64,4.97-18,3.19-2.75,8.04-4.28,12.14-3.52l.45.1Z"/>
  <path class="st0" d="M520.09,428.85c-24.51-2.71-20.38-72.78-1.6-78.87,4.97-1.65,9.23.39,12.04,5.27,8.55,13.17,9.26,71.22-10.11,73.59h-.34Z"/>
  <path class="st0" d="M596.18,413.43c-6.58,28.6-39.07,8.64-38.88-12.41.12-6.1,1.94-12.94,2.73-18.92.58-4.09,1.55-6.45-3.07-7.64-4.74-1.1-10.35-1.72-13.81-5.53-3.78-3.77-4.58-11.52-1.34-15.77,3.39-4.45,9.36-5.4,14.59-6.28,3.64-.47,5.81-2.48,6.17-6.01,1.29-8.31,1.3-18.91,8.46-22.98,5.2-3.27,12.1-.52,14.92,4.63,3.09,5.42,2.27,11.3,2.24,17.63-.5,6.57,5.1,5.96,9.82,6.61,10.7,1.52,14.06,15.36,6.71,22.29-3.62,4.37-11.05,3.27-14.59,6.36-8.45,13.9,9.37,24.86,6.15,37.46l-.12.56Z"/>
  <path class="st0" d="M628.47,442.56c-4.22,0-8.2-2.21-10.2-5.93-9.77-18.16-5.65-70.09,8.13-78.37,11.69-7.24,16.94,14.11,18.57,22.49,2.71,15,1.74,43.38-4.8,56.92-1.46,3.01-4.53,4.89-7.87,4.89h-3.82Z"/>
  <path class="st0" d="M525.52,315.67c27.8-7.93,13.14,36.66-9.98,29.24-8.24-3.26-15.03-11.52-14.59-20.61.27-4.16,2.4-7.7,5.61-9.02,5.19-1.96,12.4,2.21,18.4.49l.56-.09Z"/>
  <path class="st0" d="M654.73,697.45c-2.75-95.08-55.45-282.8-137.06-225.32l-.56.45c-16.3,13.21-26.76,33.25-35.77,52.32-33.06,70.16-80.35,197.48-41.53,233.56,14.75,13.6,37.07,4.93,48.57-9.13,22.57-22.89,27.78-72.82,54.58-83.9,30.73-4.81,34.2,37.21,43.14,58.13,7.53,20.66,28.29,46.58,50.42,30.05,15.18-11.88,18.84-36.93,18.2-56.15ZM565.78,614.26c-23.04,3.44-68.34-.02-70.06-17.36-.64-5.45,2.44-10.24,6.45-14.15,2.54-2.2,1.26-4.44,1.2-7.2-.25-8.24,6-15.51,14.15-16.51,3.07-.53,5.7,1.03,7.61-2.28,6.35-9.31,16.96-14.4,27.57-11.63,10.26,2.65,18.51,12.14,21.51,24.45.23.97.54,1.96,1.19,2.71l.09.1c.59.66,1.47,1.15,2.3,1.54,4.93,2.2,9.19,4.85,12.49,7.73,18.48,16.8,1.64,29.65-24.49,32.6Z"/>
</svg>